#!OML:ASF F:\VICON\USERDATA\INSTALL\rory3\rory3.ASF
:FULLY-SPECIFIED
:DEGREES
46
root 0.6030491586135852 17.461933584447117 23.501717718226224 1.2537963900772189 4.823623862303596 0.868315128513867
lfemur -3.117746453279075 -11.99768184846302 -26.796230844791417
ltibia 4.611720227411318
lfoot -28.972453065205908 -3.5828806975745353
ltoes 14.164914778348251
rfemur -35.58454268506094 -10.92540483272584 17.636671112306047
rtibia 149.15599675480098
rfoot 26.722669010102074 -14.259715093266603
rtoes 40.60898252808575
lowerback nan 0.9703248598955246 2.401870947694192
upperback 0.5718271402533045 1.1335893626707663 -0.6541233069692698
thorax -9.39341922019021 0.1897615490069332 -0.06605871751597148
lowerneck -20.833238521607342 -4.7615283519080664 -2.164192710638919
upperneck 7.192680751757562 -7.239664141536684 5.505289634662352
head 6.028832772790285 -2.367071053789858 1.3984568744130372
lclavicle 4.2967704826183616e-15 -1.976258676993901e-15
lhumerus -50.11974541359212 -0.2742494446867374 82.14587438191829
lradius 113.82086202597601
lwrist 32.492286679613095
lhand -31.636859298755617 7.942667917289656
lfingers nan
lthumb -4.435783363319283 37.97875584903056
rclavicle 5.522750687326072e-15 8.185556690815991e-16
rhumerus -54.59683268838394 2.319153535553246 -93.99235498615869
rradius 99.16799730212686
rwrist -25.372876562900238
rhand -17.643029120011015 nan
rfingers nan
rthumb 8.337594807133643 4.181100700375246
47
root 0.6068064244037794 17.452800894566746 24.195929195296888 1.3479213084777983 3.9062593811926734 0.8277818739114493
lfemur -2.193828329707964 -11.465945477873882 -26.95953728167133
ltibia 7.889374697437219
lfoot -31.82101705322874 -1.2628466154408944
ltoes 8.813911178676669
rfemur -35.984279317918364 -10.500532556178955 17.454017046272714
rtibia 151.79302623650113
rfoot 26.088971186428758 -12.710253146619106
rtoes 38.56333569763002
lowerback nan 1.005543225929789 2.1699085369511204
upperback 0.5396253192360875 1.2033805485611517 -0.6243372071653792
thorax -9.65761792938029 0.2433531649688918 0.07169419908802144
lowerneck -20.475453706565133 -4.67208923427248 -2.243314355029483
upperneck 6.931099723548801 -7.127574535172457 5.750444023208416
head 5.913060076213877 -2.2837656158954442 1.4821583041408224
lclavicle 3.139958071668648e-14 1.4974668024562018e-14
lhumerus -49.0482257051578 -0.2070435423833521 82.29057496120988
lradius 113.82220966864496
lwrist 32.61362557573957
lhand -32.1911788940284 7.980088059920682
lfingers nan
lthumb -4.978851627598407 37.99556350288499
rclavicle 3.305148807526961e-14 1.8156436130266056e-14
rhumerus -54.81688411722135 2.053206376715181 -93.97381803282359
rradius 96.66636645840289
rwrist -26.609753417479546
rhand -18.179372041262223 nan
rfingers nan
rthumb 7.810341760475466 2.9691582641998693
48
root 0.6118336025789655 17.433476692815336 25.109631285008277 1.5042368222556304 3.36049767468736 1.0440219005392906
lfemur -1.3727233779657126 -11.477380301611841 -27.353370535789335
ltibia 10.715751527367125
lfoot -33.01730147797009 1.173065629966656
ltoes 14.879049982643416
rfemur -36.66576611167376 -10.3296383259491 16.99129197733841
rtibia 154.44658844336345
rfoot 24.93568101391672 -11.151595827748494
rtoes 28.038003719688078
lowerback nan 1.0414130943536024 1.8146621759028143
upperback 0.6337908174528334 1.2167001895225817 -0.6696345546649876
thorax -9.472617459395032 0.2919149861944058 0.20414982021678876
lowerneck -20.792003725547932 -4.600578692023768 -2.1577543068458382
upperneck 6.82497818337506 -7.069378785767767 5.800017275833101
head 5.93975205279841 -2.230206636569241 1.4726590628694156
lclavicle 5.0937624269278645e-15 -5.710352601071237e-15
lhumerus -47.65190110445903 -0.07897703292670233 82.35494457874299
lradius 113.95555353944938
lwrist 32.70726142480861
lhand -31.460830657200308 8.024793590195817
lfingers nan
lthumb -4.266783167389294 38.04704922788899
rclavicle 6.713287953150409e-15 -2.6190576796159443e-15
rhumerus -55.000642970845135 1.568503429141769 -93.86195566640549
rradius 94.38299469255293
rwrist -27.58125120192402
rhand -19.12709898764176 nan
rfingers nan
rthumb 6.838268706124231 0.8710126674082801
49
root 0.6018686162707874 17.422257642968983 25.443655817364565 1.8254353572675148 2.4967917537015945 1.0607113075649828
lfemur -0.4078108732690353 -11.01084908377373 -27.542676580924468
ltibia 12.669673928767459
lfoot -34.246295240503954 3.33389727656542
ltoes 17.328490842560093
rfemur -37.55213140040054 -9.841859512187376 16.90742327625876
rtibia 156.43176289470765
rfoot 24.299381137856926 -10.137298092559863
rtoes 30.57311247456912
lowerback nan 1.2029301517863658 1.4678375778512458
upperback 0.7423198577683384 1.370719923008385 -0.6572030274139
thorax -8.977790463086343 0.40774355942858675 0.34787929363437853
lowerneck -21.190700019606556 -4.529930819080143 -2.1082552946608732
upperneck 6.419336927114081 -7.051571471315833 5.96519615373482
head 5.916396575929526 -2.183443048032735 1.490826803038641
lclavicle 1.690812963433336e-14 4.900464886624902e-15
lhumerus -46.314090182349574 -0.027700650961623552 82.45443683729565
lradius 114.11175950433383
lwrist 32.83516547791402
lhand -30.69264762302577 8.241726094687932
lfingers nan
lthumb -3.5385385875046618 38.23765390560013
rclavicle 1.8427029140614758e-14 8.028165299999657e-15
rhumerus -55.37108821738061 0.9823256461442806 -93.74128597419343
rradius 92.41538960341204
rwrist -27.90737833907783
rhand -19.097818864059104 nan
rfingers nan
rthumb 6.8425585502026856 2.516471049674773
50
root 0.5813263944688613 17.42750131992755 25.73337188274366 2.0958173849167223 0.9212156534144296 1.466770675315197
lfemur 0.9251375983528582 -9.75005101667357 -28.354952891388645
ltibia 14.00290001142163
lfoot -35.81197375714457 6.370126173711622
ltoes 13.583533943612235
rfemur -38.240034013751554 -8.75509519980943 16.269411262459855
rtibia 158.2077986205368
rfoot 24.04343924507244 -9.033479245900697
rtoes 35.89672883456548
lowerback nan 1.5032879768777638 0.5214083855281066
upperback 0.6875282107011386 1.6137826559981963 -0.7186986659264081
thorax -9.025327474971983 0.5780010819555108 0.5404903774705216
lowerneck -20.960035945672267 -4.44165313418466 -2.1425289718398375
upperneck 5.862258973125203 -6.9893907326369416 6.26367752867712
head 5.744694644405163 -2.124503563018237 1.5624025103242765
lclavicle -5.478250335942658e-15 3.748976541052076e-14
lhumerus -45.23177596637498 0.14844155508240497 82.47482331949873
lradius 114.24754134502874
lwrist 32.91252448291144
lhand -30.464787019025703 8.72410821915825
lfingers nan
lthumb -3.3264339328554247 38.68667927314413
rclavicle -3.4491261794391e-15 4.045875762804927e-14
rhumerus -56.43912863778374 0.15203226443139606 -93.7322390316736
rradius 91.25928250335609
rwrist -27.317164707731827
rhand -19.99256500125525 nan
rfingers nan
rthumb 6.001460478383685 -1.0976468765021483
51
root 0.5753857353742877 17.432602805953984 26.047257991520112 2.028064919222271 -0.16376477258741673 2.473704225807617
lfemur 2.9035520461614617 -9.055079390403726 -29.89907319540792
ltibia 14.587845437222065
lfoot -36.1833409755054 8.892372602654032
ltoes 10.348385879853286
rfemur -38.39552221589657 -8.08561668142601 14.774478378905147
rtibia 159.4405623388415
rfoot 23.958028255506186 -7.312473435627718
rtoes 37.46993048142157
lowerback nan 1.7690539390747255 -0.8378911269358871
upperback 0.5173191333561561 1.6838470636617062 -0.9139200560217255
thorax -9.772474348480104 0.687373004314863 0.7668388600205955
lowerneck -20.333054793303692 -4.3831601582974775 -2.15722397106817
upperneck 5.351036128471794 -6.9600759702112 6.582268228793103
head 5.501619030881654 -2.088139385229426 1.636870157147454
lclavicle -1.0924094227677397e-14 9.184270863488721e-15
lhumerus -44.40280687131524 0.31629546841185974 82.4102539494194
lradius 114.30788567662627
lwrist 33.0603626729642
lhand -31.54175626928 8.429827382991679
lfingers nan
lthumb -4.371843811796 38.36046599758243
rclavicle -8.587956630313462e-15 1.1977803789485977e-14
rhumerus -57.00039435855132 -0.2355180737206677 -93.64715234512678
rradius 89.12647500127619
rwrist -26.646969491083315
rhand -20.00902754331863 nan
rfingers nan
rthumb 6.082180786160089 0.7156633224401521
52
root 0.5878323393156623 17.432253771958873 26.812864057258107 1.9434002753662796 -0.49824568005661307 3.1311595381058894
lfemur 4.953731354806802 -9.158507658016417 -31.005592859868734
ltibia 14.82185532521762
lfoot -36.23132922811227 9.851241141923786
ltoes 10.015878980497895
rfemur -38.52511745606728 -8.10851124538971 13.870022371313325
rtibia 159.88526405076692
rfoot 21.269934685647513 -8.736257483205186
rtoes 27.91471567594679
lowerback nan 1.8684687455547038 -1.7235305687691547
upperback 0.5566046299569724 1.6509455243683802 -1.1386012963748895
thorax -9.97995840350665 0.7159578732834067 0.9132687482200381
lowerneck -20.36299871164906 -4.349591007311531 -2.1631796979419846
upperneck 5.119562785909668 -6.985197531385483 6.9465306530045225
head 5.461860160917946 -2.0597842953591683 1.7141292143662779
lclavicle -2.243791297170525e-15 1.3138234969389783e-14
lhumerus -43.43830807877436 0.42476606811599815 82.26566829778157
lradius 114.5534829179657
lwrist 33.124366186482234
lhand -32.4687298330541 8.79604159951673
lfingers nan
lthumb -5.27439299749231 38.71263178837331
rclavicle 1.4818869605478985e-16 1.6136462502673592e-14
rhumerus -57.75095332430274 -0.7202744452551819 -93.48324112464432
rradius 87.93268305907186
rwrist -25.28531594846763
rhand -19.823956179834322 nan
rfingers nan
rthumb 6.3612444308612766 3.9914867495689643
53
root 0.6010523318011676 17.439208667004923 27.711429387329996 2.2080802346846204 -0.43063198721198503 3.0169024344143165
lfemur 6.38176011954155 -9.321768524510324 -31.19195491995429
ltibia 14.95536718239385
lfoot -35.82589151662914 10.636089072622926
ltoes 8.934548178671232
rfemur -39.17187196693416 -8.394911093286206 14.227817170699337
rtibia 159.69680159228983
rfoot 21.575193127260583 -7.128951241376329
rtoes 26.15832533434579
lowerback nan 1.8530388656439416 -2.0035096284316998
upperback 0.8095252239119842 1.6179424355913594 -1.1534729827361523
thorax -9.149227456977888 0.7295790505076354 0.9940059825502503
lowerneck -21.91421799898479 -4.3395031642851345 -2.192181747449841
upperneck 5.573281201905181 -7.009819008238078 7.011508064914416
head 5.917117514073621 -2.043020205277614 1.6948028451231387
lclavicle -1.7368167796382695e-14 1.773761598401792e-14
lhumerus -42.17285651658966 0.5177535108074212 82.39728614836191
lradius 114.88877444818458
lwrist 33.05629160769627
lhand -32.03304502604573 8.807377885561468
lfingers nan
lthumb -4.87594763688231 38.72309955223775
rclavicle -1.45879983622688e-14 2.0801375002225347e-14
rhumerus -58.22687842131673 -1.142011836366148 -92.92834006597933
rradius 87.30636408824114
rwrist -23.799847699583893
rhand -19.508984967613294 nan
rfingers nan
rthumb 6.65105402169924 4.810499072987712
